<mxfile host="app.diagrams.net" modified="2021-08-03T08:20:13.169Z" agent="5.0 (Macintosh; Intel Mac OS X 10_15_7) AppleWebKit/537.36 (KHTML, like Gecko) Chrome/91.0.4472.114 Safari/537.36" etag="sfDlAG2lZ6KfiqsqGRrQ" version="14.6.13" type="github">
  <diagram id="5E_1-99GvZmwBbytE_UO" name="Page-1">
    <mxGraphModel dx="2066" dy="1074" grid="1" gridSize="10" guides="1" tooltips="1" connect="1" arrows="1" fold="1" page="1" pageScale="1" pageWidth="827" pageHeight="1169" math="0" shadow="0">
      <root>
        <mxCell id="0" />
        <mxCell id="1" parent="0" />
        <mxCell id="su3lE-A8hcXfwo6Tm22n-1" value="CommandBuffer" style="swimlane;fontStyle=1;align=center;verticalAlign=top;childLayout=stackLayout;horizontal=1;startSize=26;horizontalStack=0;resizeParent=1;resizeParentMax=0;resizeLast=0;collapsible=1;marginBottom=0;fontSize=15;" vertex="1" parent="1">
          <mxGeometry x="120" y="150" width="270" height="90" as="geometry">
            <mxRectangle x="120" y="150" width="130" height="26" as="alternateBounds" />
          </mxGeometry>
        </mxCell>
        <mxCell id="su3lE-A8hcXfwo6Tm22n-2" value="+ contextId: int" style="text;strokeColor=none;fillColor=none;align=left;verticalAlign=top;spacingLeft=4;spacingRight=4;overflow=hidden;rotatable=0;points=[[0,0.5],[1,0.5]];portConstraint=eastwest;fontSize=15;" vertex="1" parent="su3lE-A8hcXfwo6Tm22n-1">
          <mxGeometry y="26" width="270" height="26" as="geometry" />
        </mxCell>
        <mxCell id="su3lE-A8hcXfwo6Tm22n-3" value="" style="line;strokeWidth=1;fillColor=none;align=left;verticalAlign=middle;spacingTop=-1;spacingLeft=3;spacingRight=3;rotatable=0;labelPosition=right;points=[];portConstraint=eastwest;fontSize=15;" vertex="1" parent="su3lE-A8hcXfwo6Tm22n-1">
          <mxGeometry y="52" width="270" height="8" as="geometry" />
        </mxCell>
        <mxCell id="su3lE-A8hcXfwo6Tm22n-10" value="+ queue: vector&lt;UICommandItem&gt;" style="text;strokeColor=none;fillColor=none;align=left;verticalAlign=top;spacingLeft=4;spacingRight=4;overflow=hidden;rotatable=0;points=[[0,0.5],[1,0.5]];portConstraint=eastwest;fontSize=15;" vertex="1" parent="su3lE-A8hcXfwo6Tm22n-1">
          <mxGeometry y="60" width="270" height="30" as="geometry" />
        </mxCell>
        <mxCell id="su3lE-A8hcXfwo6Tm22n-11" value="UICommandItem" style="swimlane;fontStyle=0;childLayout=stackLayout;horizontal=1;startSize=26;fillColor=none;horizontalStack=0;resizeParent=1;resizeParentMax=0;resizeLast=0;collapsible=1;marginBottom=0;fontSize=15;" vertex="1" parent="1">
          <mxGeometry x="500" y="126" width="180" height="160" as="geometry" />
        </mxCell>
        <mxCell id="su3lE-A8hcXfwo6Tm22n-12" value="+ type: int" style="text;strokeColor=none;fillColor=none;align=left;verticalAlign=top;spacingLeft=4;spacingRight=4;overflow=hidden;rotatable=0;points=[[0,0.5],[1,0.5]];portConstraint=eastwest;fontSize=15;" vertex="1" parent="su3lE-A8hcXfwo6Tm22n-11">
          <mxGeometry y="26" width="180" height="26" as="geometry" />
        </mxCell>
        <mxCell id="su3lE-A8hcXfwo6Tm22n-13" value="+ id: int" style="text;strokeColor=none;fillColor=none;align=left;verticalAlign=top;spacingLeft=4;spacingRight=4;overflow=hidden;rotatable=0;points=[[0,0.5],[1,0.5]];portConstraint=eastwest;fontSize=15;" vertex="1" parent="su3lE-A8hcXfwo6Tm22n-11">
          <mxGeometry y="52" width="180" height="26" as="geometry" />
        </mxCell>
        <mxCell id="su3lE-A8hcXfwo6Tm22n-14" value="+ args1: int" style="text;strokeColor=none;fillColor=none;align=left;verticalAlign=top;spacingLeft=4;spacingRight=4;overflow=hidden;rotatable=0;points=[[0,0.5],[1,0.5]];portConstraint=eastwest;fontSize=15;" vertex="1" parent="su3lE-A8hcXfwo6Tm22n-11">
          <mxGeometry y="78" width="180" height="26" as="geometry" />
        </mxCell>
        <mxCell id="su3lE-A8hcXfwo6Tm22n-15" value="+ args2: int" style="text;strokeColor=none;fillColor=none;align=left;verticalAlign=top;spacingLeft=4;spacingRight=4;overflow=hidden;rotatable=0;points=[[0,0.5],[1,0.5]];portConstraint=eastwest;fontSize=15;" vertex="1" parent="su3lE-A8hcXfwo6Tm22n-11">
          <mxGeometry y="104" width="180" height="26" as="geometry" />
        </mxCell>
        <mxCell id="su3lE-A8hcXfwo6Tm22n-16" value="+ nativePtr: int" style="text;strokeColor=none;fillColor=none;align=left;verticalAlign=top;spacingLeft=4;spacingRight=4;overflow=hidden;rotatable=0;points=[[0,0.5],[1,0.5]];portConstraint=eastwest;fontSize=15;" vertex="1" parent="su3lE-A8hcXfwo6Tm22n-11">
          <mxGeometry y="130" width="180" height="30" as="geometry" />
        </mxCell>
        <mxCell id="su3lE-A8hcXfwo6Tm22n-18" style="edgeStyle=orthogonalEdgeStyle;rounded=0;orthogonalLoop=1;jettySize=auto;html=1;entryX=0.006;entryY=0.192;entryDx=0;entryDy=0;entryPerimeter=0;fontSize=15;" edge="1" parent="1" source="su3lE-A8hcXfwo6Tm22n-10" target="su3lE-A8hcXfwo6Tm22n-12">
          <mxGeometry relative="1" as="geometry" />
        </mxCell>
        <mxCell id="su3lE-A8hcXfwo6Tm22n-19" value="指令类型" style="text;html=1;strokeColor=none;fillColor=none;align=center;verticalAlign=middle;whiteSpace=wrap;rounded=0;fontSize=15;" vertex="1" parent="1">
          <mxGeometry x="680" y="160" width="80" height="20" as="geometry" />
        </mxCell>
        <mxCell id="su3lE-A8hcXfwo6Tm22n-20" value="节点ID" style="text;html=1;strokeColor=none;fillColor=none;align=center;verticalAlign=middle;whiteSpace=wrap;rounded=0;fontSize=15;" vertex="1" parent="1">
          <mxGeometry x="680" y="185" width="80" height="20" as="geometry" />
        </mxCell>
        <mxCell id="su3lE-A8hcXfwo6Tm22n-22" value="参数1" style="text;html=1;strokeColor=none;fillColor=none;align=center;verticalAlign=middle;whiteSpace=wrap;rounded=0;fontSize=15;spacingBottom=-10;" vertex="1" parent="1">
          <mxGeometry x="680" y="205" width="80" height="20" as="geometry" />
        </mxCell>
        <mxCell id="su3lE-A8hcXfwo6Tm22n-23" value="参数2" style="text;html=1;strokeColor=none;fillColor=none;align=center;verticalAlign=middle;whiteSpace=wrap;rounded=0;fontSize=15;spacingBottom=-18;" vertex="1" parent="1">
          <mxGeometry x="680" y="225" width="80" height="20" as="geometry" />
        </mxCell>
        <mxCell id="su3lE-A8hcXfwo6Tm22n-24" value="NativeElement" style="text;html=1;strokeColor=none;fillColor=none;align=center;verticalAlign=middle;whiteSpace=wrap;rounded=0;fontSize=15;spacingBottom=-2;" vertex="1" parent="1">
          <mxGeometry x="700" y="260" width="80" height="20" as="geometry" />
        </mxCell>
      </root>
    </mxGraphModel>
  </diagram>
</mxfile>
